<?xml version="1.0" encoding="utf-8"?>
<!-- Generator: Adobe Illustrator 22.0.0, SVG Export Plug-In . SVG Version: 6.00 Build 0)  -->
<svg version="1.1" id="star" xmlns="http://www.w3.org/2000/svg" xmlns:xlink="http://www.w3.org/1999/xlink" x="0px" y="0px"
	 viewBox="0 0 224 224" style="enable-background:new 0 0 224 224;" xml:space="preserve">
<style type="text/css">
	.st0{fill:none;stroke:#D5C5C8;stroke-miterlimit:10;}
	.st1{fill:#D5C5C8;}
</style>
<g>
	<path class="st0" d="M112,8C54.7,8,8,54.7,8,112s46.7,104,104,104s104-46.7,104-104S169.3,8,112,8z M134.8,83.6l36.5-36.4
		c1.6-1.6,4.1-1.6,5.7,0c1.6,1.6,1.6,4.1,0,5.7l-36.5,36.4c-0.8,0.8-1.8,1.2-2.8,1.2c-1,0-2-0.4-2.8-1.2
		C133.2,87.7,133.2,85.1,134.8,83.6z M28,112c0,2.2-1.8,4-4,4s-4-1.8-4-4c0-50.7,41.3-92,92-92c2.2,0,4,1.8,4,4s-1.8,4-4,4
		C65.7,28,28,65.7,28,112z M84.2,147.8l-32.3,32.3c-0.8,0.8-1.8,1.2-2.8,1.2c-1,0-2-0.4-2.8-1.2c-1.6-1.6-1.6-4.1,0-5.7l32.3-32.3
		c1.6-1.6,4.1-1.6,5.7,0C85.8,143.7,85.8,146.3,84.2,147.8z M76.8,100.6l24.3-3.5L112,75L122.9,97l24.3,3.5l-17.6,17.2l4.2,24.2
		L112,130.5L90.2,142l4.2-24.2L76.8,100.6z M114,208c-2.2,0-4-1.8-4-4s1.8-4,4-4c47.4,0,86-38.6,86-86c0-2.2,1.8-4,4-4s4,1.8,4,4
		C208,165.8,165.8,208,114,208z"/>
	<polygon class="st0" points="100.9,127.3 112,121.5 123.1,127.3 121,114.9 130,106.1 117.6,104.3 112,93 106.4,104.3 94,106.1 
		103,114.9 	"/>
	<path class="st1" d="M112,0C50.2,0,0,50.2,0,112s50.2,112,112,112c61.8,0,112-50.2,112-112S173.8,0,112,0z M112,216
		C54.7,216,8,169.3,8,112S54.7,8,112,8s104,46.7,104,104S169.3,216,112,216z"/>
	<path class="st1" d="M112,130.5l21.8,11.4l-4.2-24.2l17.6-17.2L122.9,97L112,75L101.1,97l-24.3,3.5l17.6,17.2L90.2,142L112,130.5z
		 M94,106.1l12.5-1.8L112,93l5.6,11.3l12.5,1.8l-9,8.8l2.1,12.4l-11.1-5.9l-11.1,5.9l2.1-12.4L94,106.1z"/>
	<path class="st1" d="M204,110c-2.2,0-4,1.8-4,4c0,47.4-38.6,86-86,86c-2.2,0-4,1.8-4,4s1.8,4,4,4c51.8,0,94-42.2,94-94
		C208,111.8,206.2,110,204,110z"/>
	<path class="st1" d="M112,28c2.2,0,4-1.8,4-4s-1.8-4-4-4c-50.7,0-92,41.3-92,92c0,2.2,1.8,4,4,4s4-1.8,4-4C28,65.7,65.7,28,112,28z
		"/>
	<path class="st1" d="M137.6,90.4c1,0,2-0.4,2.8-1.2l36.5-36.4c1.6-1.6,1.6-4.1,0-5.7s-4.1-1.6-5.7,0l-36.5,36.4
		c-1.6,1.6-1.6,4.1,0,5.7C135.6,90,136.6,90.4,137.6,90.4z"/>
	<path class="st1" d="M78.6,142.2l-32.3,32.3c-1.6,1.6-1.6,4.1,0,5.7c0.8,0.8,1.8,1.2,2.8,1.2c1,0,2-0.4,2.8-1.2l32.3-32.3
		c1.6-1.6,1.6-4.1,0-5.7C82.7,140.6,80.1,140.6,78.6,142.2z"/>
</g>
</svg>
